<svg
  viewBox="0 0 72 72"
  fill="white"
  xmlns="http://www.w3.org/2000/svg"
>
  <path
    d="M32.2025 0.283478L32.0135 3.49628L35.1318 5.76414L35.2263 2.17336L32.2025 0.283478Z"
  />
  <path
    d="M39.8565 0L37.8721 6.52009L43.0693 11.1503L45.3371 4.44122L39.8565 0Z"
    
  />
  <path
    d="M34.5648 9.73288L34.6593 15.686L39.762 18.1429L39.951 12.3787L34.5648 9.73288Z"
    
  />
  <path
    d="M35.6042 20.2217L29.2731 28.1592L33.4309 37.5141L40.2345 29.6711L35.6042 20.2217Z"
    
  />
  <path
    d="M44.2032 15.119L39.573 22.1116L44.2032 29.7656L49.1169 22.3006L44.2032 15.119Z"
    
  />
  <path
    d="M48.2664 10.4888L47.416 15.686L51.9517 17.9539L52.6132 12.8512L48.2664 10.4888Z"
    
  />
  <path
    d="M2.0078 43.1391L5.86149 52.7572L9.71517 43.1391H11.7311V54.9269H10.1766V50.3365L10.3224 45.3817L6.45249 54.9269H5.26238L1.4006 45.406L1.55443 50.3365V54.9269H0V43.1391H2.0078Z"
    
  />
  <path d="M16.1434 54.9269H14.5889V43.1391H16.1434V54.9269Z"  />
  <path
    d="M20.5557 53.6558H26.1419V54.9269H18.9932V43.1391H20.5557V53.6558Z"
    
  />
  <path
    d="M36.4481 49.4135C36.4481 50.5685 36.2538 51.5778 35.8652 52.4414C35.4766 53.2996 34.926 53.9554 34.2136 54.4087C33.5011 54.8621 32.67 55.0888 31.72 55.0888C30.7917 55.0888 29.9686 54.8621 29.2508 54.4087C28.5329 53.95 27.9743 53.2996 27.5749 52.4576C27.1809 51.6102 26.9785 50.6306 26.9677 49.5188V48.6687C26.9677 47.5353 27.1647 46.534 27.5587 45.6651C27.9527 44.7961 28.5086 44.1322 29.2265 43.6735C29.9497 43.2093 30.7755 42.9772 31.7038 42.9772C32.6484 42.9772 33.4795 43.2066 34.1974 43.6654C34.9206 44.1188 35.4766 44.7799 35.8652 45.6489C36.2538 46.5125 36.4481 47.5191 36.4481 48.6687V49.4135ZM34.9017 48.6525C34.9017 47.2546 34.6211 46.1832 34.0598 45.4384C33.4984 44.6882 32.7131 44.3131 31.7038 44.3131C30.7215 44.3131 29.947 44.6882 29.3803 45.4384C28.819 46.1832 28.5302 47.2195 28.514 48.5472V49.4135C28.514 50.7682 28.7974 51.8342 29.3641 52.6114C29.9362 53.3832 30.7215 53.7692 31.72 53.7692C32.7239 53.7692 33.5011 53.4048 34.0517 52.6762C34.6022 51.9422 34.8856 50.8924 34.9017 49.5269V48.6525Z"
    
  />
  <path
    d="M47.8391 54.9269H46.2766L40.3422 45.8432V54.9269H38.7797V43.1391H40.3422L46.2928 52.2633V43.1391H47.8391V54.9269Z"
    
  />
  <path
    d="M59.303 53.3805C58.9036 53.9527 58.345 54.3817 57.6271 54.6678C56.9147 54.9485 56.0835 55.0888 55.1336 55.0888C54.1729 55.0888 53.3201 54.8648 52.5753 54.4168C51.8304 53.9635 51.2529 53.3212 50.8427 52.49C50.4379 51.6588 50.2301 50.6954 50.2193 49.5997V48.5715C50.2193 46.7958 50.6322 45.4195 51.458 44.4426C52.2892 43.4657 53.455 42.9772 54.9555 42.9772C56.1861 42.9772 57.1765 43.293 57.9267 43.9244C58.6769 44.5505 59.1357 45.4411 59.303 46.5961H57.7486C57.4571 45.0363 56.5288 44.2564 54.9636 44.2564C53.9219 44.2564 53.1312 44.6234 52.5914 45.3574C52.0571 46.0861 51.7872 47.1439 51.7818 48.5311V49.4945C51.7818 50.8168 52.0841 51.8693 52.6886 52.6519C53.2931 53.4291 54.1108 53.8177 55.1417 53.8177C55.7246 53.8177 56.2346 53.753 56.6718 53.6234C57.109 53.4939 57.4706 53.2753 57.7567 52.9677V50.3203H55.0283V49.0573H59.303V53.3805Z"
    
  />
  <path
    d="M68.411 51.8504H63.4724L62.3633 54.9269H60.7603L65.2617 43.1391H66.6218L71.1312 54.9269H69.5363L68.411 51.8504ZM63.942 50.5712H67.9495L65.9417 45.0579L63.942 50.5712Z"
    
  />
  <path
    d="M27.1708 67.2127C27.0251 68.4594 26.5636 69.4229 25.7864 70.1029C25.0146 70.7776 23.9864 71.1149 22.7018 71.1149C21.3093 71.1149 20.1921 70.6157 19.3501 69.6172C18.5135 68.6187 18.0952 67.2828 18.0952 65.6097V64.4762C18.0952 63.3806 18.2895 62.4171 18.6781 61.586C19.0721 60.7548 19.628 60.1179 20.3459 59.6753C21.0637 59.2273 21.8949 59.0033 22.8394 59.0033C24.0916 59.0033 25.0955 59.3542 25.8511 60.0558C26.6068 60.7521 27.0466 61.7182 27.1708 62.9542H25.6083C25.4733 62.015 25.1792 61.335 24.7258 60.914C24.2778 60.493 23.649 60.2825 22.8394 60.2825C21.8463 60.2825 21.0664 60.6495 20.4997 61.3836C19.9384 62.1176 19.6577 63.162 19.6577 64.5167V65.6582C19.6577 66.9374 19.9249 67.9548 20.4592 68.7104C20.9936 69.466 21.7411 69.8439 22.7018 69.8439C23.5654 69.8439 24.2266 69.6495 24.6853 69.2609C25.1495 68.8669 25.4571 68.1842 25.6083 67.2127H27.1708Z"
    
  />
  <path d="M30.9678 70.953H29.4134V59.1653H30.9678V70.953Z"  />
  <path
    d="M41.7193 60.4444H37.9303V70.953H36.384V60.4444H32.6032V59.1653H41.7193V60.4444Z"
    
  />
  <path
    d="M47.1921 65.0834L50.2686 59.1653H52.0335L47.9693 66.5569V70.953H46.4149V66.5569L42.3507 59.1653H44.1319L47.1921 65.0834Z"
    
  />
</svg>
